<svg width="100" height="60" viewBox="0 0 100 60" fill="none" xmlns="http://www.w3.org/2000/svg">
  <!-- Left goggle lens -->
  <ellipse cx="25" cy="30" rx="20" ry="25" fill="none" stroke="#DC2626" stroke-width="3"/>
  <circle cx="20" cy="25" r="12" stroke="#DC2626" stroke-width="1.5" fill="none" opacity="0.6"/>
  
  <!-- Right goggle lens -->
  <ellipse cx="75" cy="30" rx="20" ry="25" fill="none" stroke="#DC2626" stroke-width="3"/>
  <circle cx="50" cy="25" r="12" stroke="#DC2626" stroke-width="1.5" fill="none" opacity="0.6"/>
  
  <!-- Bridge connecting the lenses -->
  <rect x="32" y="22" width="6" height="6" rx="3" fill="#DC2626"/>
  
  <!-- Left strap -->
  <path d="M5 25 Q2 25 2 22 Q2 19 5 19" stroke="#DC2626" stroke-width="2.5" fill="none" stroke-linecap="round"/>
  <path d="M5 25 Q2 25 2 28 Q2 31 5 31" stroke="#DC2626" stroke-width="2.5" fill="none" stroke-linecap="round"/>
  
  <!-- Right strap -->
  <path d="M65 25 Q68 25 68 22 Q68 19 65 19" stroke="#DC2626" stroke-width="2.5" fill="none" stroke-linecap="round"/>
  <path d="M65 25 Q68 25 68 28 Q68 31 65 31" stroke="#DC2626" stroke-width="2.5" fill="none" stroke-linecap="round"/>
  
  <!-- Lens highlights for depth -->
  <circle cx="16" cy="21" r="2" fill="#DC2626" opacity="0.3"/>
  <circle cx="46" cy="21" r="2" fill="#DC2626" opacity="0.3"/>
  
  <!-- Extended strap lines -->
  <line x1="68" y1="30" x2="85" y2="30" stroke="#DC2626" stroke-width="2" stroke-linecap="round"/>
  <line x1="2" y1="30" x2="15" y2="30" stroke="#DC2626" stroke-width="2" stroke-linecap="round" opacity="0.7"/>
</svg>
